<svg class="svg-icon" style="width: 1em;height: 1em;vertical-align: middle;fill: currentColor;overflow: hidden;" viewBox="0 0 1024 1024" version="1.1" xmlns="http://www.w3.org/2000/svg"><path d="M400 884.26H239.12a98.43 98.43 0 0 1-98.32-98.32V625.05a98.43 98.43 0 0 1 98.32-98.32H400a98.43 98.43 0 0 1 98.32 98.32v160.89A98.43 98.43 0 0 1 400 884.26zM239.12 616.11a9 9 0 0 0-8.94 8.94v160.89a9 9 0 0 0 8.94 8.94H400a9 9 0 0 0 8.94-8.94V625.05a9 9 0 0 0-8.94-8.94zM400 455.23H239.12a98.43 98.43 0 0 1-98.32-98.32V196a98.43 98.43 0 0 1 98.32-98.3H400a98.43 98.43 0 0 1 98.33 98.3v160.91A98.43 98.43 0 0 1 400 455.23zM239.12 187.08a9 9 0 0 0-8.94 8.94v160.89a9 9 0 0 0 8.94 8.94H400a9 9 0 0 0 8.94-8.94V196a9 9 0 0 0-8.94-8.94zM829 884.26H668.15a98.43 98.43 0 0 1-98.32-98.32V625.05a98.43 98.43 0 0 1 98.32-98.32H829a98.43 98.43 0 0 1 98.32 98.32v160.89A98.43 98.43 0 0 1 829 884.26zM668.15 616.11a9 9 0 0 0-8.94 8.94v160.89a9 9 0 0 0 8.94 8.94H829a9 9 0 0 0 8.94-8.94V625.05a9 9 0 0 0-8.94-8.94z" fill="#4D4D4D" /><path d="M748.6 455.23c-98.6 0-178.77-80.23-178.77-178.77S650 97.7 748.6 97.7s178.76 80.19 178.76 178.76-80.19 178.77-178.76 178.77z m0-286a107.26 107.26 0 1 0 107.25 107.23A107.38 107.38 0 0 0 748.6 169.21z" fill="#00796B" /></svg>